<svg width="19" height="20" viewBox="0 0 19 20" fill="none" xmlns="http://www.w3.org/2000/svg">
<mask id="path-1-inside-1_1_1832" fill="white">
<path d="M9.36586 18.7317C8.81952 18.7317 8.26537 18.5209 7.85171 18.1072L6.51708 16.7883C6.18147 16.4604 5.74439 16.2809 5.2761 16.2809H4.68293C3.06732 16.2809 1.7561 14.9775 1.7561 13.3775V4.86238C1.7561 3.26238 3.06732 1.95898 4.68293 1.95898H14.0488C15.6644 1.95898 16.9756 3.26238 16.9756 4.86238V13.3775C16.9756 14.9775 15.6644 16.2809 14.0488 16.2809H13.4556C12.9873 16.2809 12.5424 16.4604 12.2146 16.7883L10.88 18.1072C10.4663 18.5209 9.9122 18.7317 9.36586 18.7317ZM4.68293 3.1219C3.71513 3.1219 2.92684 3.90237 2.92684 4.85456V13.3697C2.92684 14.3297 3.71513 15.1024 4.68293 15.1024H5.2761C6.05659 15.1024 6.79025 15.4067 7.3444 15.9531L8.67903 17.2722C9.06147 17.6468 9.67805 17.6468 10.0605 17.2722L11.3951 15.9531C11.9493 15.4067 12.6829 15.1024 13.4634 15.1024H14.0488C15.0166 15.1024 15.8049 14.3219 15.8049 13.3697V4.85456C15.8049 3.89456 15.0166 3.1219 14.0488 3.1219H4.68293Z"/>
</mask>
<path d="M9.36586 18.7317C8.81952 18.7317 8.26537 18.5209 7.85171 18.1072L6.51708 16.7883C6.18147 16.4604 5.74439 16.2809 5.2761 16.2809H4.68293C3.06732 16.2809 1.7561 14.9775 1.7561 13.3775V4.86238C1.7561 3.26238 3.06732 1.95898 4.68293 1.95898H14.0488C15.6644 1.95898 16.9756 3.26238 16.9756 4.86238V13.3775C16.9756 14.9775 15.6644 16.2809 14.0488 16.2809H13.4556C12.9873 16.2809 12.5424 16.4604 12.2146 16.7883L10.88 18.1072C10.4663 18.5209 9.9122 18.7317 9.36586 18.7317ZM4.68293 3.1219C3.71513 3.1219 2.92684 3.90237 2.92684 4.85456V13.3697C2.92684 14.3297 3.71513 15.1024 4.68293 15.1024H5.2761C6.05659 15.1024 6.79025 15.4067 7.3444 15.9531L8.67903 17.2722C9.06147 17.6468 9.67805 17.6468 10.0605 17.2722L11.3951 15.9531C11.9493 15.4067 12.6829 15.1024 13.4634 15.1024H14.0488C15.0166 15.1024 15.8049 14.3219 15.8049 13.3697V4.85456C15.8049 3.89456 15.0166 3.1219 14.0488 3.1219H4.68293Z" fill="#042656" stroke="#042656" stroke-width="2.34146" mask="url(#path-1-inside-1_1_1832)"/>
<path d="M8.10164 12.3005H6.00993C5.66651 12.3005 5.34651 12.1365 5.14359 11.8556C4.94846 11.5902 4.90163 11.2625 4.99529 10.9503C5.26846 10.1151 5.93968 9.66242 6.53285 9.25657C7.15724 8.8351 7.50846 8.56977 7.50846 8.11709C7.50846 7.71123 7.18066 7.38338 6.7748 7.38338C6.36895 7.38338 6.04115 7.71123 6.04115 8.11709C6.04115 8.43709 5.77579 8.70245 5.45579 8.70245C5.13579 8.70245 4.87042 8.43709 4.87042 8.11709C4.87042 7.07123 5.72114 6.21265 6.7748 6.21265C7.82846 6.21265 8.67919 7.06343 8.67919 8.11709C8.67919 9.21757 7.85189 9.77949 7.18847 10.2322C6.77481 10.5132 6.38456 10.7785 6.18944 11.1298H8.09383C8.41383 11.1298 8.67919 11.3951 8.67919 11.7151C8.67919 12.0351 8.42164 12.3005 8.10164 12.3005Z" fill="#042656"/>
<path d="M12.5189 12.3005C12.1989 12.3005 11.9335 12.0351 11.9335 11.7151V11.1766H10.4038C10.4038 11.1766 10.4038 11.1766 10.396 11.1766C10.0135 11.1766 9.66233 10.9737 9.4672 10.6459C9.27208 10.3103 9.27208 9.89661 9.4672 9.5688C9.99793 8.65563 10.6145 7.61755 11.1765 6.71219C11.4262 6.31414 11.9023 6.13466 12.3472 6.25954C12.7921 6.39222 13.1043 6.79811 13.0965 7.2664V10.0136H13.2682C13.5882 10.0136 13.8535 10.279 13.8535 10.599C13.8535 10.919 13.5882 11.1844 13.2682 11.1844H13.1043V11.723C13.1043 12.043 12.8467 12.3005 12.5189 12.3005ZM11.9335 7.71905C11.473 8.46832 10.997 9.27217 10.5677 10.0058H11.9335V7.71905Z" fill="#042656"/>
</svg>
