<svg width="24" height="25" viewBox="0 0 24 25" fill="none" xmlns="http://www.w3.org/2000/svg">
<mask id="path-1-inside-1_1_2300" fill="white">
<path d="M5.53867 18.9613L13.9493 14.4493L18.4613 6.03867L10.052 10.552L5.53867 18.9613ZM12 13.8333C11.6222 13.8333 11.3058 13.7053 11.0507 13.4493C10.7956 13.1933 10.6676 12.8769 10.6667 12.5C10.6658 12.1231 10.7938 11.8067 11.0507 11.5507C11.3076 11.2947 11.624 11.1667 12 11.1667C12.376 11.1667 12.6929 11.2947 12.9507 11.5507C13.2084 11.8067 13.336 12.1231 13.3333 12.5C13.3307 12.8769 13.2027 13.1938 12.9493 13.4507C12.696 13.7076 12.3796 13.8351 12 13.8333ZM12.004 24.5C10.3444 24.5 8.78444 24.1853 7.324 23.556C5.86356 22.9258 4.59289 22.0707 3.512 20.9907C2.43111 19.9107 1.57556 18.6413 0.945333 17.1827C0.315111 15.724 0 14.1644 0 12.504C0 10.8436 0.315111 9.28356 0.945333 7.824C1.57467 6.36356 2.42844 5.09289 3.50667 4.012C4.58489 2.93111 5.85467 2.07556 7.316 1.44533C8.77733 0.815111 10.3373 0.5 11.996 0.5C13.6547 0.5 15.2147 0.815111 16.676 1.44533C18.1364 2.07467 19.4071 2.92889 20.488 4.008C21.5689 5.08711 22.4244 6.35689 23.0547 7.81733C23.6849 9.27778 24 10.8373 24 12.496C24 14.1547 23.6853 15.7147 23.056 17.176C22.4267 18.6373 21.5716 19.908 20.4907 20.988C19.4098 22.068 18.1404 22.9236 16.6827 23.5547C15.2249 24.1858 13.6653 24.5009 12.004 24.5ZM12 23.1667C14.9778 23.1667 17.5 22.1333 19.5667 20.0667C21.6333 18 22.6667 15.4778 22.6667 12.5C22.6667 9.52222 21.6333 7 19.5667 4.93333C17.5 2.86667 14.9778 1.83333 12 1.83333C9.02222 1.83333 6.5 2.86667 4.43333 4.93333C2.36667 7 1.33333 9.52222 1.33333 12.5C1.33333 15.4778 2.36667 18 4.43333 20.0667C6.5 22.1333 9.02222 23.1667 12 23.1667Z"/>
</mask>
<path d="M5.53867 18.9613L13.9493 14.4493L18.4613 6.03867L10.052 10.552L5.53867 18.9613ZM12 13.8333C11.6222 13.8333 11.3058 13.7053 11.0507 13.4493C10.7956 13.1933 10.6676 12.8769 10.6667 12.5C10.6658 12.1231 10.7938 11.8067 11.0507 11.5507C11.3076 11.2947 11.624 11.1667 12 11.1667C12.376 11.1667 12.6929 11.2947 12.9507 11.5507C13.2084 11.8067 13.336 12.1231 13.3333 12.5C13.3307 12.8769 13.2027 13.1938 12.9493 13.4507C12.696 13.7076 12.3796 13.8351 12 13.8333ZM12.004 24.5C10.3444 24.5 8.78444 24.1853 7.324 23.556C5.86356 22.9258 4.59289 22.0707 3.512 20.9907C2.43111 19.9107 1.57556 18.6413 0.945333 17.1827C0.315111 15.724 0 14.1644 0 12.504C0 10.8436 0.315111 9.28356 0.945333 7.824C1.57467 6.36356 2.42844 5.09289 3.50667 4.012C4.58489 2.93111 5.85467 2.07556 7.316 1.44533C8.77733 0.815111 10.3373 0.5 11.996 0.5C13.6547 0.5 15.2147 0.815111 16.676 1.44533C18.1364 2.07467 19.4071 2.92889 20.488 4.008C21.5689 5.08711 22.4244 6.35689 23.0547 7.81733C23.6849 9.27778 24 10.8373 24 12.496C24 14.1547 23.6853 15.7147 23.056 17.176C22.4267 18.6373 21.5716 19.908 20.4907 20.988C19.4098 22.068 18.1404 22.9236 16.6827 23.5547C15.2249 24.1858 13.6653 24.5009 12.004 24.5ZM12 23.1667C14.9778 23.1667 17.5 22.1333 19.5667 20.0667C21.6333 18 22.6667 15.4778 22.6667 12.5C22.6667 9.52222 21.6333 7 19.5667 4.93333C17.5 2.86667 14.9778 1.83333 12 1.83333C9.02222 1.83333 6.5 2.86667 4.43333 4.93333C2.36667 7 1.33333 9.52222 1.33333 12.5C1.33333 15.4778 2.36667 18 4.43333 20.0667C6.5 22.1333 9.02222 23.1667 12 23.1667Z" fill="#BBBBBB" stroke="#BBBBBB" stroke-width="2.66667" mask="url(#path-1-inside-1_1_2300)"/>
</svg>
