<svg width="19" height="19" viewBox="0 0 19 19" fill="none" xmlns="http://www.w3.org/2000/svg">
<mask id="path-1-inside-1_1_1810" fill="white">
<path d="M9.36583 17.8048C4.73754 17.8048 0.975586 14.0428 0.975586 9.41454C0.975586 4.78624 4.73754 1.02429 9.36583 1.02429C13.9941 1.02429 17.7561 4.78624 17.7561 9.41454C17.7561 14.0428 13.9941 17.8048 9.36583 17.8048ZM9.36583 2.19502C5.38534 2.19502 2.14632 5.43405 2.14632 9.41454C2.14632 13.395 5.38534 16.634 9.36583 16.634C13.3463 16.634 16.5853 13.395 16.5853 9.41454C16.5853 5.43405 13.3463 2.19502 9.36583 2.19502Z"/>
</mask>
<path d="M9.36583 17.8048C4.73754 17.8048 0.975586 14.0428 0.975586 9.41454C0.975586 4.78624 4.73754 1.02429 9.36583 1.02429C13.9941 1.02429 17.7561 4.78624 17.7561 9.41454C17.7561 14.0428 13.9941 17.8048 9.36583 17.8048ZM9.36583 2.19502C5.38534 2.19502 2.14632 5.43405 2.14632 9.41454C2.14632 13.395 5.38534 16.634 9.36583 16.634C13.3463 16.634 16.5853 13.395 16.5853 9.41454C16.5853 5.43405 13.3463 2.19502 9.36583 2.19502Z" fill="#042656" stroke="#042656" stroke-width="2.34146" mask="url(#path-1-inside-1_1_1810)"/>
<path d="M9.3659 12.2478C8.33566 12.2478 7.49274 11.4048 7.49274 10.3746V8.4468C7.49274 7.41655 8.33566 6.57361 9.3659 6.57361C10.3961 6.57361 11.2391 7.41655 11.2391 8.4468V10.3746C11.2391 11.4126 10.3961 12.2478 9.3659 12.2478ZM9.3659 7.75215C8.98346 7.75215 8.66347 8.06437 8.66347 8.45461V10.3824C8.66347 10.7726 8.97566 11.0849 9.3659 11.0849C9.75615 11.0849 10.0683 10.7726 10.0683 10.3824V8.45461C10.0683 8.06437 9.74834 7.75215 9.3659 7.75215Z" fill="#042656"/>
<path d="M9.36586 14.7375C6.89171 14.7375 4.87805 12.7239 4.87805 10.2497V8.57948C4.87805 6.10533 6.89171 4.09167 9.36586 4.09167C11.6761 4.09167 13.5961 5.82438 13.8302 8.11902C13.8615 8.43902 13.6273 8.72776 13.3073 8.75898C12.9873 8.798 12.6985 8.55606 12.6673 8.23606C12.4956 6.5424 11.0751 5.26241 9.36586 5.26241C7.53952 5.26241 6.04878 6.75314 6.04878 8.57948V10.2497C6.04878 12.0761 7.53952 13.5668 9.36586 13.5668C11.0829 13.5668 12.5346 12.2243 12.6751 10.5151C12.6985 10.1951 12.9795 9.95312 13.3073 9.97654C13.6273 9.99995 13.8693 10.281 13.8459 10.6088C13.6585 12.9268 11.6917 14.7375 9.36586 14.7375Z" fill="#042656"/>
</svg>
