<svg width="19" height="20" viewBox="0 0 19 20" fill="none" xmlns="http://www.w3.org/2000/svg">
<mask id="path-1-inside-1_1_1848" fill="white">
<path d="M11.8946 18.2838H11.7932C8.32782 18.2838 6.65757 16.9179 6.36879 13.8584C6.33757 13.5384 6.57172 13.2496 6.89952 13.2184C7.21172 13.1872 7.5083 13.4291 7.53952 13.7491C7.76587 16.1999 8.92099 17.1131 11.801 17.1131H11.9025C15.079 17.1131 16.2029 15.9891 16.2029 12.8126V7.72378C16.2029 4.5472 15.079 3.4233 11.9025 3.4233H11.801C8.90538 3.4233 7.75026 4.35208 7.53952 6.84964C7.5005 7.16964 7.22733 7.41159 6.89952 7.38037C6.57172 7.35695 6.33757 7.06817 6.36099 6.74817C6.62635 3.64183 8.3044 2.25256 11.7932 2.25256H11.8946C15.7268 2.25256 17.3659 3.89159 17.3659 7.72378V12.8126C17.3659 16.6448 15.7268 18.2838 11.8946 18.2838Z"/>
</mask>
<path d="M11.8946 18.2838H11.7932C8.32782 18.2838 6.65757 16.9179 6.36879 13.8584C6.33757 13.5384 6.57172 13.2496 6.89952 13.2184C7.21172 13.1872 7.5083 13.4291 7.53952 13.7491C7.76587 16.1999 8.92099 17.1131 11.801 17.1131H11.9025C15.079 17.1131 16.2029 15.9891 16.2029 12.8126V7.72378C16.2029 4.5472 15.079 3.4233 11.9025 3.4233H11.801C8.90538 3.4233 7.75026 4.35208 7.53952 6.84964C7.5005 7.16964 7.22733 7.41159 6.89952 7.38037C6.57172 7.35695 6.33757 7.06817 6.36099 6.74817C6.62635 3.64183 8.3044 2.25256 11.7932 2.25256H11.8946C15.7268 2.25256 17.3659 3.89159 17.3659 7.72378V12.8126C17.3659 16.6448 15.7268 18.2838 11.8946 18.2838Z" fill="#C33025" stroke="#C33025" stroke-width="2.34146" mask="url(#path-1-inside-1_1_1848)"/>
<path d="M11.7073 10.8536H2.82536C2.50536 10.8536 2.23999 10.5882 2.23999 10.2682C2.23999 9.94823 2.50536 9.68286 2.82536 9.68286H11.7073C12.0273 9.68286 12.2927 9.94823 12.2927 10.2682C12.2927 10.5882 12.0273 10.8536 11.7073 10.8536Z" fill="#C33025"/>
<path d="M4.56585 13.4681C4.41755 13.4681 4.26926 13.4135 4.15219 13.2964L1.53755 10.6818C1.31121 10.4554 1.31121 10.0808 1.53755 9.85446L4.15219 7.23982C4.37853 7.01348 4.75316 7.01348 4.97951 7.23982C5.20585 7.46617 5.20585 7.8408 4.97951 8.06714L2.77853 10.2681L4.97951 12.4691C5.20585 12.6954 5.20585 13.0701 4.97951 13.2964C4.87024 13.4135 4.71414 13.4681 4.56585 13.4681Z" fill="#C33025"/>
</svg>
