<svg width="19" height="19" viewBox="0 0 19 19" fill="none" xmlns="http://www.w3.org/2000/svg">
<mask id="path-1-inside-1_1_1788" fill="white">
<path d="M9.49043 9.19119C9.46701 9.19119 9.4514 9.19119 9.42799 9.19119C9.38897 9.18339 9.33433 9.18339 9.2875 9.19119C7.02409 9.12095 5.31482 7.34144 5.31482 5.14827C5.31482 2.91607 7.13336 1.09753 9.36555 1.09753C11.5977 1.09753 13.4163 2.91607 13.4163 5.14827C13.4085 7.34144 11.6914 9.12095 9.51384 9.19119C9.50604 9.19119 9.49823 9.19119 9.49043 9.19119ZM9.36555 2.26827C7.78116 2.26827 6.48555 3.56388 6.48555 5.14827C6.48555 6.70924 7.70311 7.96583 9.25628 8.02046C9.29531 8.01266 9.40458 8.01266 9.50604 8.02046C11.0358 7.95022 12.2377 6.69363 12.2456 5.14827C12.2456 3.56388 10.9499 2.26827 9.36555 2.26827Z"/>
</mask>
<path d="M9.49043 9.19119C9.46701 9.19119 9.4514 9.19119 9.42799 9.19119C9.38897 9.18339 9.33433 9.18339 9.2875 9.19119C7.02409 9.12095 5.31482 7.34144 5.31482 5.14827C5.31482 2.91607 7.13336 1.09753 9.36555 1.09753C11.5977 1.09753 13.4163 2.91607 13.4163 5.14827C13.4085 7.34144 11.6914 9.12095 9.51384 9.19119C9.50604 9.19119 9.49823 9.19119 9.49043 9.19119ZM9.36555 2.26827C7.78116 2.26827 6.48555 3.56388 6.48555 5.14827C6.48555 6.70924 7.70311 7.96583 9.25628 8.02046C9.29531 8.01266 9.40458 8.01266 9.50604 8.02046C11.0358 7.95022 12.2377 6.69363 12.2456 5.14827C12.2456 3.56388 10.9499 2.26827 9.36555 2.26827Z" fill="#042656" stroke="#042656" stroke-width="2.34146" mask="url(#path-1-inside-1_1_1788)"/>
<path d="M9.49826 17.7219C7.9685 17.7219 6.43094 17.3317 5.26801 16.5512C4.18314 15.8331 3.58997 14.8497 3.58997 13.7804C3.58997 12.7112 4.18314 11.72 5.26801 10.9941C7.60948 9.44093 11.4026 9.44093 13.7285 10.9941C14.8056 11.7122 15.4066 12.6956 15.4066 13.7648C15.4066 14.8341 14.8134 15.8253 13.7285 16.5512C12.5578 17.3317 11.028 17.7219 9.49826 17.7219ZM5.91582 11.9775C5.16655 12.477 4.7607 13.117 4.7607 13.7882C4.7607 14.4517 5.17436 15.0917 5.91582 15.5834C7.85923 16.8868 11.1373 16.8868 13.0807 15.5834C13.83 15.0839 14.2358 14.4439 14.2358 13.7726C14.2358 13.1092 13.8222 12.4692 13.0807 11.9775C11.1373 10.6819 7.85923 10.6819 5.91582 11.9775Z" fill="#042656"/>
</svg>
