<svg width="19" height="20" viewBox="0 0 19 20" fill="none" xmlns="http://www.w3.org/2000/svg">
<mask id="path-1-inside-1_1_1772" fill="white">
<path d="M11.7073 18.6829H7.02437C2.78632 18.6829 0.975586 16.8722 0.975586 12.6341V7.95119C0.975586 3.71314 2.78632 1.9024 7.02437 1.9024H11.7073C15.9453 1.9024 17.7561 3.71314 17.7561 7.95119V12.6341C17.7561 16.8722 15.9453 18.6829 11.7073 18.6829ZM7.02437 3.07314C3.42632 3.07314 2.14632 4.35314 2.14632 7.95119V12.6341C2.14632 16.2322 3.42632 17.5122 7.02437 17.5122H11.7073C15.3053 17.5122 16.5853 16.2322 16.5853 12.6341V7.95119C16.5853 4.35314 15.3053 3.07314 11.7073 3.07314H7.02437Z"/>
</mask>
<path d="M11.7073 18.6829H7.02437C2.78632 18.6829 0.975586 16.8722 0.975586 12.6341V7.95119C0.975586 3.71314 2.78632 1.9024 7.02437 1.9024H11.7073C15.9453 1.9024 17.7561 3.71314 17.7561 7.95119V12.6341C17.7561 16.8722 15.9453 18.6829 11.7073 18.6829ZM7.02437 3.07314C3.42632 3.07314 2.14632 4.35314 2.14632 7.95119V12.6341C2.14632 16.2322 3.42632 17.5122 7.02437 17.5122H11.7073C15.3053 17.5122 16.5853 16.2322 16.5853 12.6341V7.95119C16.5853 4.35314 15.3053 3.07314 11.7073 3.07314H7.02437Z" fill="#042656" stroke="#042656" stroke-width="2.34146" mask="url(#path-1-inside-1_1_1772)"/>
<path d="M12.16 15.9512C11.84 15.9512 11.5746 15.6858 11.5746 15.3658V12.3219C11.5746 12.0019 11.84 11.7366 12.16 11.7366C12.48 11.7366 12.7454 12.0019 12.7454 12.3219V15.3658C12.7454 15.6858 12.48 15.9512 12.16 15.9512Z" fill="#042656"/>
<path d="M12.16 7.32684C11.84 7.32684 11.5746 7.06147 11.5746 6.74147V5.21952C11.5746 4.89952 11.84 4.63416 12.16 4.63416C12.48 4.63416 12.7454 4.89952 12.7454 5.21952V6.74147C12.7454 7.06147 12.48 7.32684 12.16 7.32684Z" fill="#042656"/>
<path d="M12.16 11.3853C10.7161 11.3853 9.54535 10.2146 9.54535 8.7707C9.54535 7.3268 10.7161 6.15607 12.16 6.15607C13.6039 6.15607 14.7746 7.3268 14.7746 8.7707C14.7746 10.2146 13.5961 11.3853 12.16 11.3853ZM12.16 7.3268C11.3639 7.3268 10.7161 7.9746 10.7161 8.7707C10.7161 9.5668 11.3639 10.2146 12.16 10.2146C12.9561 10.2146 13.6039 9.5668 13.6039 8.7707C13.6039 7.9746 12.9483 7.3268 12.16 7.3268Z" fill="#042656"/>
<path d="M6.57169 15.9512C6.25169 15.9512 5.98633 15.6859 5.98633 15.3659V13.8439C5.98633 13.5239 6.25169 13.2585 6.57169 13.2585C6.89169 13.2585 7.15706 13.5239 7.15706 13.8439V15.3659C7.15706 15.6859 6.8995 15.9512 6.57169 15.9512Z" fill="#292D32"/>
<path d="M6.57169 8.84879C6.25169 8.84879 5.98633 8.58342 5.98633 8.26342V5.21952C5.98633 4.89952 6.25169 4.63416 6.57169 4.63416C6.89169 4.63416 7.15706 4.89952 7.15706 5.21952V8.26342C7.15706 8.58342 6.8995 8.84879 6.57169 8.84879Z" fill="#292D32"/>
<path d="M6.57173 14.4292C5.12782 14.4292 3.95709 13.2585 3.95709 11.8146C3.95709 10.3707 5.12782 9.19995 6.57173 9.19995C8.01563 9.19995 9.18636 10.3707 9.18636 11.8146C9.18636 13.2585 8.01563 14.4292 6.57173 14.4292ZM6.57173 10.3707C5.77563 10.3707 5.12782 11.0185 5.12782 11.8146C5.12782 12.6107 5.77563 13.2585 6.57173 13.2585C7.36782 13.2585 8.01563 12.6107 8.01563 11.8146C8.01563 11.0185 7.37563 10.3707 6.57173 10.3707Z" fill="#292D32"/>
</svg>
