<svg width="19" height="20" viewBox="0 0 19 20" fill="none" xmlns="http://www.w3.org/2000/svg">
<mask id="path-1-inside-1_1_1815" fill="white">
<path d="M9.36586 18.5444C8.51513 18.5444 7.6722 18.2946 7.00879 17.8029L3.65269 15.2976C2.76293 14.6342 2.0683 13.2527 2.0683 12.1444V6.33757C2.0683 5.13562 2.95025 3.85562 4.08196 3.43415L7.97659 1.97464C8.74927 1.68586 9.96684 1.68586 10.7395 1.97464L14.642 3.43415C15.7737 3.85562 16.6556 5.13562 16.6556 6.33757V12.1366C16.6556 13.2449 15.961 14.6263 15.0712 15.2898L11.7151 17.7951C11.0595 18.2946 10.2166 18.5444 9.36586 18.5444ZM8.39025 3.07513L4.49562 4.53464C3.8244 4.7844 3.23903 5.62732 3.23903 6.34537V12.1444C3.23903 12.8859 3.76196 13.9239 4.34732 14.361L7.70342 16.8663C8.60098 17.5376 10.1229 17.5376 11.0205 16.8663L14.3766 14.361C14.9698 13.9161 15.4849 12.8781 15.4849 12.1444V6.33757C15.4849 5.62732 14.8995 4.7844 14.2283 4.52684L10.3337 3.06732C9.81854 2.88001 8.91318 2.88001 8.39025 3.07513Z"/>
</mask>
<path d="M9.36586 18.5444C8.51513 18.5444 7.6722 18.2946 7.00879 17.8029L3.65269 15.2976C2.76293 14.6342 2.0683 13.2527 2.0683 12.1444V6.33757C2.0683 5.13562 2.95025 3.85562 4.08196 3.43415L7.97659 1.97464C8.74927 1.68586 9.96684 1.68586 10.7395 1.97464L14.642 3.43415C15.7737 3.85562 16.6556 5.13562 16.6556 6.33757V12.1366C16.6556 13.2449 15.961 14.6263 15.0712 15.2898L11.7151 17.7951C11.0595 18.2946 10.2166 18.5444 9.36586 18.5444ZM8.39025 3.07513L4.49562 4.53464C3.8244 4.7844 3.23903 5.62732 3.23903 6.34537V12.1444C3.23903 12.8859 3.76196 13.9239 4.34732 14.361L7.70342 16.8663C8.60098 17.5376 10.1229 17.5376 11.0205 16.8663L14.3766 14.361C14.9698 13.9161 15.4849 12.8781 15.4849 12.1444V6.33757C15.4849 5.62732 14.8995 4.7844 14.2283 4.52684L10.3337 3.06732C9.81854 2.88001 8.91318 2.88001 8.39025 3.07513Z" fill="#042656" stroke="#042656" stroke-width="2.34146" mask="url(#path-1-inside-1_1_1815)"/>
<path d="M9.36582 11.122C8.17948 11.122 7.21948 10.162 7.21948 8.97569C7.21948 7.78935 8.17948 6.82935 9.36582 6.82935C10.5522 6.82935 11.5122 7.78935 11.5122 8.97569C11.5122 10.162 10.5522 11.122 9.36582 11.122ZM9.36582 8.00008C8.82729 8.00008 8.39021 8.43715 8.39021 8.97569C8.39021 9.51422 8.82729 9.9513 9.36582 9.9513C9.90436 9.9513 10.3414 9.51422 10.3414 8.97569C10.3414 8.43715 9.90436 8.00008 9.36582 8.00008Z" fill="#042656"/>
<path d="M9.36588 13.4635C9.04588 13.4635 8.78052 13.1981 8.78052 12.8781V10.5367C8.78052 10.2167 9.04588 9.95129 9.36588 9.95129C9.68588 9.95129 9.95125 10.2167 9.95125 10.5367V12.8781C9.95125 13.1981 9.68588 13.4635 9.36588 13.4635Z" fill="#042656"/>
</svg>
