<svg width="19" height="20" viewBox="0 0 19 20" fill="none" xmlns="http://www.w3.org/2000/svg">
<mask id="path-1-inside-1_1_1784" fill="white">
<path d="M9.36587 18.1463C5.27611 18.1463 1.95123 14.8215 1.95123 10.7317C1.95123 6.64196 5.27611 3.31708 9.36587 3.31708C13.4556 3.31708 16.7805 6.64196 16.7805 10.7317C16.7805 14.8215 13.4556 18.1463 9.36587 18.1463ZM9.36587 4.48781C5.92392 4.48781 3.12196 7.28976 3.12196 10.7317C3.12196 14.1737 5.92392 16.9756 9.36587 16.9756C12.8078 16.9756 15.6098 14.1737 15.6098 10.7317C15.6098 7.28976 12.8078 4.48781 9.36587 4.48781Z"/>
</mask>
<path d="M9.36587 18.1463C5.27611 18.1463 1.95123 14.8215 1.95123 10.7317C1.95123 6.64196 5.27611 3.31708 9.36587 3.31708C13.4556 3.31708 16.7805 6.64196 16.7805 10.7317C16.7805 14.8215 13.4556 18.1463 9.36587 18.1463ZM9.36587 4.48781C5.92392 4.48781 3.12196 7.28976 3.12196 10.7317C3.12196 14.1737 5.92392 16.9756 9.36587 16.9756C12.8078 16.9756 15.6098 14.1737 15.6098 10.7317C15.6098 7.28976 12.8078 4.48781 9.36587 4.48781Z" fill="#042656" stroke="#042656" stroke-width="2.34146" mask="url(#path-1-inside-1_1_1784)"/>
<path d="M9.36588 11.1219C9.04588 11.1219 8.78052 10.8566 8.78052 10.5366V6.63413C8.78052 6.31413 9.04588 6.04877 9.36588 6.04877C9.68588 6.04877 9.95125 6.31413 9.95125 6.63413V10.5366C9.95125 10.8566 9.68588 11.1219 9.36588 11.1219Z" fill="#042656"/>
<path d="M11.7073 2.53658H7.02439C6.70439 2.53658 6.43903 2.27121 6.43903 1.95121C6.43903 1.63121 6.70439 1.36584 7.02439 1.36584H11.7073C12.0273 1.36584 12.2927 1.63121 12.2927 1.95121C12.2927 2.27121 12.0273 2.53658 11.7073 2.53658Z" fill="#042656"/>
</svg>
