<svg width="19" height="20" viewBox="0 0 19 20" fill="none" xmlns="http://www.w3.org/2000/svg">
<mask id="path-1-inside-1_1_1780" fill="white">
<path d="M9.36589 18.4146C8.75711 18.4146 8.16394 18.1024 7.75808 17.5561L6.96978 16.5024C6.80588 16.2839 6.58735 16.159 6.3532 16.1434C6.11906 16.1356 5.88491 16.2371 5.6976 16.4322L5.26833 16.0342L5.6976 16.4322C4.57369 17.6342 3.70735 17.5405 3.29369 17.3766C2.87223 17.2127 2.16199 16.6742 2.16199 14.9415V6.15318C2.16199 2.68781 3.16101 1.63416 6.43126 1.63416H12.3317C15.602 1.63416 16.601 2.68781 16.601 6.15318V14.9415C16.601 16.6663 15.8908 17.2049 15.4693 17.3766C15.0556 17.5405 14.1971 17.6342 13.0654 16.4322C12.8781 16.2293 12.6439 16.1278 12.402 16.1434C12.1678 16.159 11.9415 16.2839 11.7776 16.5024L10.9893 17.5561C10.5678 18.1024 9.97467 18.4146 9.36589 18.4146ZM6.30638 14.9649C6.33759 14.9649 6.37662 14.9649 6.40784 14.9649C6.9854 14.9961 7.53174 15.3005 7.89857 15.7922L8.68687 16.8459C9.0693 17.3532 9.65467 17.3532 10.0371 16.8459L10.8254 15.7922C11.2 15.3005 11.7386 14.9961 12.3239 14.9649C12.9093 14.9337 13.4791 15.1756 13.9005 15.6283C14.4937 16.2605 14.8761 16.3385 15.0166 16.2839C15.2039 16.2059 15.4069 15.7532 15.4069 14.9415V6.15318C15.4069 3.33562 14.9152 2.80489 12.3083 2.80489H6.40784C3.80101 2.80489 3.30931 3.33562 3.30931 6.15318V14.9415C3.30931 15.761 3.51223 16.2137 3.69955 16.2839C3.83223 16.3385 4.22247 16.2605 4.81564 15.6283C5.24491 15.199 5.76784 14.9649 6.30638 14.9649Z"/>
</mask>
<path d="M9.36589 18.4146C8.75711 18.4146 8.16394 18.1024 7.75808 17.5561L6.96978 16.5024C6.80588 16.2839 6.58735 16.159 6.3532 16.1434C6.11906 16.1356 5.88491 16.2371 5.6976 16.4322L5.26833 16.0342L5.6976 16.4322C4.57369 17.6342 3.70735 17.5405 3.29369 17.3766C2.87223 17.2127 2.16199 16.6742 2.16199 14.9415V6.15318C2.16199 2.68781 3.16101 1.63416 6.43126 1.63416H12.3317C15.602 1.63416 16.601 2.68781 16.601 6.15318V14.9415C16.601 16.6663 15.8908 17.2049 15.4693 17.3766C15.0556 17.5405 14.1971 17.6342 13.0654 16.4322C12.8781 16.2293 12.6439 16.1278 12.402 16.1434C12.1678 16.159 11.9415 16.2839 11.7776 16.5024L10.9893 17.5561C10.5678 18.1024 9.97467 18.4146 9.36589 18.4146ZM6.30638 14.9649C6.33759 14.9649 6.37662 14.9649 6.40784 14.9649C6.9854 14.9961 7.53174 15.3005 7.89857 15.7922L8.68687 16.8459C9.0693 17.3532 9.65467 17.3532 10.0371 16.8459L10.8254 15.7922C11.2 15.3005 11.7386 14.9961 12.3239 14.9649C12.9093 14.9337 13.4791 15.1756 13.9005 15.6283C14.4937 16.2605 14.8761 16.3385 15.0166 16.2839C15.2039 16.2059 15.4069 15.7532 15.4069 14.9415V6.15318C15.4069 3.33562 14.9152 2.80489 12.3083 2.80489H6.40784C3.80101 2.80489 3.30931 3.33562 3.30931 6.15318V14.9415C3.30931 15.761 3.51223 16.2137 3.69955 16.2839C3.83223 16.3385 4.22247 16.2605 4.81564 15.6283C5.24491 15.199 5.76784 14.9649 6.30638 14.9649Z" fill="#042656" stroke="#042656" stroke-width="2.34146" mask="url(#path-1-inside-1_1_1780)"/>
<path d="M11.5122 9.04878H7.21952C6.89952 9.04878 6.63416 8.78342 6.63416 8.46342C6.63416 8.14342 6.89952 7.87805 7.21952 7.87805H11.5122C11.8322 7.87805 12.0976 8.14342 12.0976 8.46342C12.0976 8.78342 11.8322 9.04878 11.5122 9.04878Z" fill="#042656"/>
</svg>
