<svg width="19" height="20" viewBox="0 0 19 20" fill="none" xmlns="http://www.w3.org/2000/svg">
<mask id="path-1-inside-1_1_1819" fill="white">
<path d="M13.2683 18.2683H5.46339C2.02144 18.2683 0.975586 17.2224 0.975586 13.7805V12.2195C0.975586 8.77754 2.02144 7.73169 5.46339 7.73169H13.2683C16.7102 7.73169 17.7561 8.77754 17.7561 12.2195V13.7805C17.7561 17.2224 16.7102 18.2683 13.2683 18.2683ZM5.46339 8.90242C2.66924 8.90242 2.14632 9.43315 2.14632 12.2195V13.7805C2.14632 16.5668 2.66924 17.0975 5.46339 17.0975H13.2683C16.0624 17.0975 16.5853 16.5668 16.5853 13.7805V12.2195C16.5853 9.43315 16.0624 8.90242 13.2683 8.90242H5.46339Z"/>
</mask>
<path d="M13.2683 18.2683H5.46339C2.02144 18.2683 0.975586 17.2224 0.975586 13.7805V12.2195C0.975586 8.77754 2.02144 7.73169 5.46339 7.73169H13.2683C16.7102 7.73169 17.7561 8.77754 17.7561 12.2195V13.7805C17.7561 17.2224 16.7102 18.2683 13.2683 18.2683ZM5.46339 8.90242C2.66924 8.90242 2.14632 9.43315 2.14632 12.2195V13.7805C2.14632 16.5668 2.66924 17.0975 5.46339 17.0975H13.2683C16.0624 17.0975 16.5853 16.5668 16.5853 13.7805V12.2195C16.5853 9.43315 16.0624 8.90242 13.2683 8.90242H5.46339Z" fill="#042656" stroke="#042656" stroke-width="2.34146" mask="url(#path-1-inside-1_1_1819)"/>
<path d="M4.6829 8.90243C4.3629 8.90243 4.09753 8.63706 4.09753 8.31706V6.75609C4.09753 4.49267 4.64388 1.48779 9.36583 1.48779C12.8624 1.48779 14.6341 2.99413 14.6341 5.9756C14.6341 6.2956 14.3688 6.56096 14.0488 6.56096C13.7288 6.56096 13.4634 6.2956 13.4634 5.9756C13.4634 4.43023 12.9951 2.65852 9.36583 2.65852C5.9629 2.65852 5.26827 4.29755 5.26827 6.75609V8.31706C5.26827 8.63706 5.0029 8.90243 4.6829 8.90243Z" fill="#042656"/>
<path d="M9.36587 15.5365C7.9688 15.5365 6.82928 14.397 6.82928 13C6.82928 11.6029 7.9688 10.4634 9.36587 10.4634C10.7629 10.4634 11.9025 11.6029 11.9025 13C11.9025 14.397 10.7629 15.5365 9.36587 15.5365ZM9.36587 11.6341C8.6166 11.6341 8.00002 12.2507 8.00002 13C8.00002 13.7492 8.6166 14.3658 9.36587 14.3658C10.1151 14.3658 10.7317 13.7492 10.7317 13C10.7317 12.2507 10.1151 11.6341 9.36587 11.6341Z" fill="#042656"/>
</svg>
