<svg width="14" height="12" viewBox="0 0 14 12" fill="none" xmlns="http://www.w3.org/2000/svg">
<path d="M2.38107 3.33342C2.87286 2.48161 3.59063 1.78238 4.45503 1.31306C5.31942 0.843731 6.29676 0.622582 7.279 0.674059C8.26123 0.725536 9.21011 1.04763 10.0207 1.60474C10.8313 2.16185 11.4721 2.93227 11.8721 3.83082M1.15442 1.67699L1.64069 3.78335C1.72352 4.1421 2.08148 4.36579 2.44024 4.28297L4.5466 3.79669M11.6187 8.66668C11.1269 9.51849 10.4091 10.2177 9.54475 10.687C8.68035 11.1564 7.70301 11.3775 6.72077 11.326C5.73854 11.2746 4.78966 10.9525 3.97907 10.3953C3.16847 9.83824 2.52772 9.06782 2.12766 8.16927M12.8454 10.3231L12.3591 8.21674C12.2763 7.85799 11.9183 7.6343 11.5595 7.71712L9.45317 8.2034" stroke="#44110D" stroke-linecap="round"/>
</svg>
