<svg width="19" height="20" viewBox="0 0 19 20" fill="none" xmlns="http://www.w3.org/2000/svg">
<mask id="path-1-inside-1_1_1759" fill="white">
<path d="M8.42147 12.5717C8.26538 12.5717 8.11708 12.5093 8.00782 12.4L6.11904 10.5112C5.89269 10.2849 5.89269 9.91025 6.11904 9.68391C6.34538 9.45757 6.72001 9.45757 6.94635 9.68391L8.42147 11.159L11.7776 7.80293C12.0039 7.57659 12.3785 7.57659 12.6049 7.80293C12.8312 8.02928 12.8312 8.40391 12.6049 8.63025L8.83513 12.4C8.72586 12.5093 8.57757 12.5717 8.42147 12.5717Z"/>
</mask>
<path d="M8.42147 12.5717C8.26538 12.5717 8.11708 12.5093 8.00782 12.4L6.11904 10.5112C5.89269 10.2849 5.89269 9.91025 6.11904 9.68391C6.34538 9.45757 6.72001 9.45757 6.94635 9.68391L8.42147 11.159L11.7776 7.80293C12.0039 7.57659 12.3785 7.57659 12.6049 7.80293C12.8312 8.02928 12.8312 8.40391 12.6049 8.63025L8.83513 12.4C8.72586 12.5093 8.57757 12.5717 8.42147 12.5717Z" fill="#FBE0B6" stroke="#042656" stroke-width="2.34146" mask="url(#path-1-inside-1_1_1759)"/>
<mask id="path-2-inside-2_1_1759" fill="white">
<path d="M9.36583 18.4878C8.87413 18.4878 8.38242 18.3239 7.99998 17.9961L6.76681 16.9346C6.64193 16.8253 6.32974 16.7161 6.16583 16.7161H4.82339C3.66827 16.7161 2.73169 15.7795 2.73169 14.6243V13.2897C2.73169 13.1258 2.62242 12.8214 2.51315 12.6965L1.45949 11.4556C0.819492 10.6985 0.819492 9.50435 1.45949 8.74728L2.51315 7.5063C2.62242 7.38142 2.73169 7.07703 2.73169 6.91313V5.57069C2.73169 4.41557 3.66827 3.47898 4.82339 3.47898H6.17364C6.33754 3.47898 6.64974 3.36191 6.77461 3.26045L8.00778 2.19898C8.77266 1.54337 9.96681 1.54337 10.7317 2.19898L11.9649 3.26045C12.0897 3.36971 12.4019 3.47898 12.5658 3.47898H13.8927C15.0478 3.47898 15.9844 4.41557 15.9844 5.57069V6.89752C15.9844 7.06142 16.1014 7.37362 16.2107 7.49849L17.2722 8.73167C17.9278 9.49654 17.9278 10.6907 17.2722 11.4556L16.2107 12.6887C16.1014 12.8136 15.9844 13.1258 15.9844 13.2897V14.6165C15.9844 15.7717 15.0478 16.7082 13.8927 16.7082H12.5658C12.4019 16.7082 12.0897 16.8253 11.9649 16.9268L10.7317 17.9883C10.3492 18.3239 9.85754 18.4878 9.36583 18.4878ZM4.82339 4.64971C4.31608 4.64971 3.90242 5.06337 3.90242 5.57069V6.90532C3.90242 7.3502 3.69169 7.91996 3.40291 8.25557L2.34925 9.49654C2.07608 9.81654 2.07608 10.3707 2.34925 10.6907L3.40291 11.9317C3.69169 12.2751 3.90242 12.837 3.90242 13.2819V14.6165C3.90242 15.1239 4.31608 15.5375 4.82339 15.5375H6.17364C6.62632 15.5375 7.19608 15.7483 7.53949 16.0448L8.77266 17.1063C9.09266 17.3795 9.65461 17.3795 9.97461 17.1063L11.2078 16.0448C11.5512 15.7561 12.121 15.5375 12.5736 15.5375H13.9005C14.4078 15.5375 14.8214 15.1239 14.8214 14.6165V13.2897C14.8214 12.837 15.0322 12.2673 15.3288 11.9239L16.3902 10.6907C16.6634 10.3707 16.6634 9.80874 16.3902 9.48874L15.3288 8.25557C15.0322 7.91215 14.8214 7.3424 14.8214 6.88971V5.57069C14.8214 5.06337 14.4078 4.64971 13.9005 4.64971H12.5736C12.121 4.64971 11.5512 4.43898 11.2078 4.1424L9.97461 3.08093C9.65461 2.80776 9.09266 2.80776 8.77266 3.08093L7.53949 4.1502C7.19608 4.43898 6.61852 4.64971 6.17364 4.64971H4.82339Z"/>
</mask>
<path d="M9.36583 18.4878C8.87413 18.4878 8.38242 18.3239 7.99998 17.9961L6.76681 16.9346C6.64193 16.8253 6.32974 16.7161 6.16583 16.7161H4.82339C3.66827 16.7161 2.73169 15.7795 2.73169 14.6243V13.2897C2.73169 13.1258 2.62242 12.8214 2.51315 12.6965L1.45949 11.4556C0.819492 10.6985 0.819492 9.50435 1.45949 8.74728L2.51315 7.5063C2.62242 7.38142 2.73169 7.07703 2.73169 6.91313V5.57069C2.73169 4.41557 3.66827 3.47898 4.82339 3.47898H6.17364C6.33754 3.47898 6.64974 3.36191 6.77461 3.26045L8.00778 2.19898C8.77266 1.54337 9.96681 1.54337 10.7317 2.19898L11.9649 3.26045C12.0897 3.36971 12.4019 3.47898 12.5658 3.47898H13.8927C15.0478 3.47898 15.9844 4.41557 15.9844 5.57069V6.89752C15.9844 7.06142 16.1014 7.37362 16.2107 7.49849L17.2722 8.73167C17.9278 9.49654 17.9278 10.6907 17.2722 11.4556L16.2107 12.6887C16.1014 12.8136 15.9844 13.1258 15.9844 13.2897V14.6165C15.9844 15.7717 15.0478 16.7082 13.8927 16.7082H12.5658C12.4019 16.7082 12.0897 16.8253 11.9649 16.9268L10.7317 17.9883C10.3492 18.3239 9.85754 18.4878 9.36583 18.4878ZM4.82339 4.64971C4.31608 4.64971 3.90242 5.06337 3.90242 5.57069V6.90532C3.90242 7.3502 3.69169 7.91996 3.40291 8.25557L2.34925 9.49654C2.07608 9.81654 2.07608 10.3707 2.34925 10.6907L3.40291 11.9317C3.69169 12.2751 3.90242 12.837 3.90242 13.2819V14.6165C3.90242 15.1239 4.31608 15.5375 4.82339 15.5375H6.17364C6.62632 15.5375 7.19608 15.7483 7.53949 16.0448L8.77266 17.1063C9.09266 17.3795 9.65461 17.3795 9.97461 17.1063L11.2078 16.0448C11.5512 15.7561 12.121 15.5375 12.5736 15.5375H13.9005C14.4078 15.5375 14.8214 15.1239 14.8214 14.6165V13.2897C14.8214 12.837 15.0322 12.2673 15.3288 11.9239L16.3902 10.6907C16.6634 10.3707 16.6634 9.80874 16.3902 9.48874L15.3288 8.25557C15.0322 7.91215 14.8214 7.3424 14.8214 6.88971V5.57069C14.8214 5.06337 14.4078 4.64971 13.9005 4.64971H12.5736C12.121 4.64971 11.5512 4.43898 11.2078 4.1424L9.97461 3.08093C9.65461 2.80776 9.09266 2.80776 8.77266 3.08093L7.53949 4.1502C7.19608 4.43898 6.61852 4.64971 6.17364 4.64971H4.82339Z" fill="#FBE0B6" stroke="#042656" stroke-width="2.34146" mask="url(#path-2-inside-2_1_1759)"/>
</svg>
